<svg width="148" height="56" viewBox="0 0 148 56" fill="none" xmlns="http://www.w3.org/2000/svg">
<rect width="148" height="56" fill="#402F2C"/>
<path d="M32.144 31.912L33.296 30.58C33.98 31.24 34.676 31.738 35.384 32.074C36.104 32.398 36.854 32.56 37.634 32.56C38.534 32.56 39.266 32.362 39.83 31.966C40.406 31.57 40.694 31.066 40.694 30.454C40.694 29.902 40.496 29.476 40.1 29.176C39.704 28.864 39.05 28.63 38.138 28.474L36.032 28.132C34.88 27.94 34.016 27.574 33.44 27.034C32.876 26.482 32.594 25.756 32.594 24.856C32.594 23.764 33.02 22.888 33.872 22.228C34.724 21.568 35.846 21.238 37.238 21.238C38.138 21.238 39.032 21.388 39.92 21.688C40.808 21.976 41.606 22.396 42.314 22.948L41.27 24.388C40.586 23.872 39.902 23.488 39.218 23.236C38.534 22.972 37.844 22.84 37.148 22.84C36.332 22.84 35.672 23.014 35.168 23.362C34.664 23.71 34.412 24.16 34.412 24.712C34.412 25.228 34.586 25.624 34.934 25.9C35.282 26.164 35.858 26.362 36.662 26.494L38.696 26.818C40.016 27.034 40.988 27.43 41.612 28.006C42.248 28.57 42.566 29.338 42.566 30.31C42.566 30.886 42.446 31.414 42.206 31.894C41.966 32.374 41.624 32.782 41.18 33.118C40.748 33.454 40.22 33.718 39.596 33.91C38.972 34.09 38.288 34.18 37.544 34.18C36.536 34.18 35.564 33.982 34.628 33.586C33.692 33.19 32.864 32.632 32.144 31.912ZM44.1011 34V21.4L45.9011 21.004V25.756C46.2611 25.396 46.6691 25.126 47.1251 24.946C47.5931 24.754 48.1031 24.658 48.6551 24.658C49.6991 24.658 50.5571 24.994 51.2291 25.666C51.9011 26.326 52.2371 27.184 52.2371 28.24V34H50.4371V28.546C50.4371 27.826 50.2271 27.262 49.8071 26.854C49.3991 26.434 48.8531 26.224 48.1691 26.224C47.6891 26.224 47.2511 26.326 46.8551 26.53C46.4711 26.734 46.1531 27.028 45.9011 27.412V34H44.1011ZM53.9 29.41C53.9 28.75 54.02 28.132 54.26 27.556C54.512 26.968 54.854 26.464 55.286 26.044C55.718 25.612 56.222 25.276 56.798 25.036C57.386 24.784 58.01 24.658 58.67 24.658C59.33 24.658 59.948 24.784 60.524 25.036C61.112 25.276 61.616 25.612 62.036 26.044C62.468 26.464 62.804 26.968 63.044 27.556C63.296 28.132 63.422 28.75 63.422 29.41C63.422 30.082 63.296 30.712 63.044 31.3C62.804 31.876 62.468 32.38 62.036 32.812C61.616 33.232 61.112 33.568 60.524 33.82C59.948 34.06 59.33 34.18 58.67 34.18C58.01 34.18 57.386 34.06 56.798 33.82C56.222 33.568 55.718 33.232 55.286 32.812C54.854 32.38 54.512 31.876 54.26 31.3C54.02 30.712 53.9 30.082 53.9 29.41ZM58.67 32.596C59.498 32.596 60.2 32.29 60.776 31.678C61.364 31.054 61.658 30.298 61.658 29.41C61.658 28.522 61.364 27.772 60.776 27.16C60.2 26.548 59.498 26.242 58.67 26.242C57.842 26.242 57.134 26.548 56.546 27.16C55.958 27.772 55.664 28.522 55.664 29.41C55.664 30.298 55.952 31.054 56.528 31.678C57.116 32.29 57.83 32.596 58.67 32.596ZM65.1245 37.726V24.838H66.9065V25.72C67.2785 25.384 67.7045 25.132 68.1845 24.964C68.6645 24.784 69.1745 24.694 69.7145 24.694C70.3625 24.694 70.9685 24.82 71.5325 25.072C72.0965 25.312 72.5825 25.642 72.9905 26.062C73.4105 26.482 73.7405 26.98 73.9805 27.556C74.2205 28.132 74.3405 28.75 74.3405 29.41C74.3405 30.07 74.2205 30.694 73.9805 31.282C73.7405 31.858 73.4105 32.356 72.9905 32.776C72.5825 33.196 72.0905 33.532 71.5145 33.784C70.9385 34.024 70.3265 34.144 69.6785 34.144C69.1745 34.144 68.6825 34.066 68.2025 33.91C67.7345 33.754 67.3085 33.532 66.9245 33.244V37.726H65.1245ZM69.4805 26.26C68.9645 26.26 68.4845 26.356 68.0405 26.548C67.5965 26.74 67.2245 27.01 66.9245 27.358V31.498C67.2125 31.834 67.5785 32.098 68.0225 32.29C68.4785 32.482 68.9645 32.578 69.4805 32.578C70.3565 32.578 71.0885 32.278 71.6765 31.678C72.2765 31.078 72.5765 30.328 72.5765 29.428C72.5765 28.528 72.2765 27.778 71.6765 27.178C71.0765 26.566 70.3445 26.26 69.4805 26.26ZM80.0358 21.4H81.8898L88.9098 30.742V21.4H90.6918V34H89.0358L81.8178 24.352V34H80.0358V21.4ZM92.6421 29.41C92.6421 28.75 92.7621 28.132 93.0021 27.556C93.2541 26.968 93.5961 26.464 94.0281 26.044C94.4601 25.612 94.9641 25.276 95.5401 25.036C96.1281 24.784 96.7521 24.658 97.4121 24.658C98.0721 24.658 98.6901 24.784 99.2661 25.036C99.8541 25.276 100.358 25.612 100.778 26.044C101.21 26.464 101.546 26.968 101.786 27.556C102.038 28.132 102.164 28.75 102.164 29.41C102.164 30.082 102.038 30.712 101.786 31.3C101.546 31.876 101.21 32.38 100.778 32.812C100.358 33.232 99.8541 33.568 99.2661 33.82C98.6901 34.06 98.0721 34.18 97.4121 34.18C96.7521 34.18 96.1281 34.06 95.5401 33.82C94.9641 33.568 94.4601 33.232 94.0281 32.812C93.5961 32.38 93.2541 31.876 93.0021 31.3C92.7621 30.712 92.6421 30.082 92.6421 29.41ZM97.4121 32.596C98.2401 32.596 98.9421 32.29 99.5181 31.678C100.106 31.054 100.4 30.298 100.4 29.41C100.4 28.522 100.106 27.772 99.5181 27.16C98.9421 26.548 98.2401 26.242 97.4121 26.242C96.5841 26.242 95.8761 26.548 95.2881 27.16C94.7001 27.772 94.4061 28.522 94.4061 29.41C94.4061 30.298 94.6941 31.054 95.2701 31.678C95.8581 32.29 96.5721 32.596 97.4121 32.596ZM107.147 34H105.401L102.845 24.838H104.591L106.355 31.57L108.461 24.838H110.009L112.097 31.57L113.879 24.838H115.571L112.997 34H111.269L109.217 27.286L107.147 34Z" fill="white"/>
</svg>
